<svg width="16" height="16" viewBox="0 0 16 16" fill="none" xmlns="http://www.w3.org/2000/svg">
<path d="M16 6.90909V9.09091C16 9.39394 15.8939 9.65152 15.6818 9.86364C15.4697 10.0758 15.2121 10.1818 14.9091 10.1818H10.1818V14.9091C10.1818 15.2121 10.0758 15.4697 9.86364 15.6818C9.65152 15.8939 9.39394 16 9.09091 16H6.90909C6.60606 16 6.34848 15.8939 6.13636 15.6818C5.92424 15.4697 5.81818 15.2121 5.81818 14.9091V10.1818H1.09091C0.787879 10.1818 0.530303 10.0758 0.318182 9.86364C0.106061 9.65152 0 9.39394 0 9.09091V6.90909C0 6.60606 0.106061 6.34848 0.318182 6.13636C0.530303 5.92424 0.787879 5.81818 1.09091 5.81818H5.81818V1.09091C5.81818 0.787879 5.92424 0.530303 6.13636 0.318182C6.34848 0.106061 6.60606 0 6.90909 0H9.09091C9.39394 0 9.65152 0.106061 9.86364 0.318182C10.0758 0.530303 10.1818 0.787879 10.1818 1.09091V5.81818H14.9091C15.2121 5.81818 15.4697 5.92424 15.6818 6.13636C15.8939 6.34848 16 6.60606 16 6.90909Z" fill="white"/>
</svg>
