<svg width="18" height="19" viewBox="0 0 18 19" fill="none" xmlns="http://www.w3.org/2000/svg">
<path fill-rule="evenodd" clip-rule="evenodd" d="M5 4.22222C5 3.10242 5.42143 2.02848 6.17157 1.23666C6.92172 0.44484 7.93913 0 9 0C10.0609 0 11.0783 0.44484 11.8284 1.23666C12.5786 2.02848 13 3.10242 13 4.22222C13 5.34203 12.5786 6.41596 11.8284 7.20778C11.0783 7.9996 10.0609 8.44444 9 8.44444C7.93913 8.44444 6.92172 7.9996 6.17157 7.20778C5.42143 6.41596 5 5.34203 5 4.22222ZM5 10.5556C3.67392 10.5556 2.40215 11.1116 1.46447 12.1014C0.526784 13.0912 0 14.4336 0 15.8333C0 16.6732 0.316071 17.4786 0.87868 18.0725C1.44129 18.6664 2.20435 19 3 19H15C15.7956 19 16.5587 18.6664 17.1213 18.0725C17.6839 17.4786 18 16.6732 18 15.8333C18 14.4336 17.4732 13.0912 16.5355 12.1014C15.5979 11.1116 14.3261 10.5556 13 10.5556H5Z" fill="white"/>
</svg>
